<svg id="Camada_1" data-name="Camada 1" xmlns="http://www.w3.org/2000/svg" viewBox="0 0 574.99 574.99"><defs><style>.cls-1{font-size:48.56px;}.cls-1,.cls-2{fill:#955edb;font-family:LilitaOne, Lilita One;}.cls-2{font-size:16.3px;}.cls-3{fill:#fff;font-family:ArialMT, Arial;}.cls-4{letter-spacing:-0.07em;}</style></defs><title>AI - Uniso Mapp - Descrições</title><rect x="0.01" y="0.02" width="574.99" height="574.99"/><text class="cls-1" transform="translate(207.51 60.57)">Apoio 4</text><text class="cls-2" transform="translate(62.1 90.06)">Térreo:<tspan class="cls-3"><tspan x="0" y="19.56">Banheiro M/F</tspan><tspan x="0" y="39.12">Bebedouro</tspan><tspan x="0" y="58.68">Clínica radiológica: 004</tspan><tspan x="0" y="78.24">Depósito de materiais de limpeza: 018</tspan><tspan x="0" y="97.8">LAFINAU e LAPISUS: 013</tspan><tspan x="0" y="117.36">Laboratório de bancadas: 0</tspan><tspan class="cls-4" x="198.47" y="117.36">1</tspan><tspan x="206.32" y="117.36">1</tspan><tspan x="0" y="136.92">Laboratório de manequins odontológicos: 016</tspan><tspan x="0" y="156.48">Laboratório de uso geral: 015</tspan><tspan x="0" y="176.04">Máquina de café</tspan><tspan x="0" y="195.6">Máquina de snacks</tspan><tspan x="0" y="215.16">Sala de armários: 010</tspan><tspan x="0" y="234.72">Sala de aula: 001</tspan><tspan x="0" y="254.28">Sala dos professores: 019</tspan><tspan x="0" y="273.84">Sala técnica: 017</tspan></tspan><tspan x="0" y="293.4">1º Andar:</tspan><tspan class="cls-3"><tspan x="0" y="312.96">Almoxarifado: </tspan><tspan class="cls-4" x="104.18" y="312.96">1</tspan><tspan x="112.04" y="312.96">14</tspan><tspan x="0" y="332.52">Banheiro M/F (2)</tspan><tspan x="0" y="352.08">Bebedouro (2)</tspan><tspan x="0" y="371.64">Centro de esterilização</tspan><tspan x="0" y="391.2">Clínica odontológica: 103 e </tspan><tspan class="cls-4" x="201.17" y="391.2">11</tspan><tspan x="216.88" y="391.2">1</tspan><tspan x="0" y="410.76">Laboratório de prótese: 109</tspan><tspan x="0" y="430.32">Recepção: 101</tspan><tspan x="0" y="449.88">Sala de aula 2: 108</tspan></tspan></text></svg>