<svg id="Camada_1" data-name="Camada 1" xmlns="http://www.w3.org/2000/svg" viewBox="0 0 574.99 574.99"><defs><style>.cls-1{font-size:48.56px;}.cls-1,.cls-2{fill:#955edb;font-family:LilitaOne, Lilita One;}.cls-2{font-size:17px;}.cls-3{font-size:18.08px;fill:#fff;font-family:ArialMT, Arial;}.cls-4{letter-spacing:-0.02em;}.cls-5{letter-spacing:-0.06em;}.cls-6{letter-spacing:-0.11em;}.cls-7{letter-spacing:-0.02em;}</style></defs><title>AI - Uniso Mapp - Descrições</title><rect x="0.01" y="0.02" width="574.99" height="574.99"/><text class="cls-1" transform="translate(209.28 60.57)">Apoio 2</text><text class="cls-2" transform="translate(62.1 90.56)">Térreo:<tspan class="cls-3"><tspan x="0" y="21.7">Apoio</tspan><tspan class="cls-4" x="46.25" y="21.7"> </tspan><tspan x="50.94" y="21.7">Técnico:</tspan><tspan class="cls-5" x="119.28" y="21.7"> </tspan><tspan x="123.3" y="21.7">Adm 01</tspan><tspan x="0" y="43.4">Banheiro F/M</tspan><tspan x="0" y="65.09">Bebedouro</tspan><tspan x="0" y="86.79">Laboratório de</tspan><tspan class="cls-5" x="116.61" y="86.79"> </tspan><tspan x="120.63" y="86.79">Anatomia Humana: 01 - 02</tspan><tspan x="0" y="108.49">Laboratório de</tspan><tspan class="cls-5" x="116.61" y="108.49"> </tspan><tspan x="120.63" y="108.49">Análise Cromatográfica</tspan><tspan x="0" y="130.19">Laboratório de Biociências</tspan><tspan x="0" y="151.89">Laboratório de Manipulação (Farmácia)</tspan><tspan x="0" y="173.58">Laboratório de</tspan><tspan class="cls-4" x="116.61" y="173.58"> </tspan><tspan class="cls-6" x="121.3" y="173.58">T</tspan><tspan x="130.35" y="173.58">erapia Ocupacional: 01 - 02 - 03</tspan><tspan x="0" y="195.28">Máquina de bebidas</tspan><tspan x="0" y="216.98">Máquina de café</tspan><tspan x="0" y="238.68">Máquina de snacks</tspan></tspan><tspan x="0" y="259.08">1º Andar:</tspan><tspan class="cls-3"><tspan x="0" y="280.78">Banheiro F/M</tspan><tspan x="0" y="302.47">Bebedouro</tspan><tspan x="0" y="324.17">Laboratório de</tspan><tspan class="cls-5" x="116.61" y="324.17"> </tspan><tspan x="120.63" y="324.17">Análise Química: 01 - 02</tspan><tspan x="0" y="345.87">Laboratório de Microscopia: 01 - 02</tspan><tspan x="0" y="367.57">Sala de pesquisa e</tspan><tspan class="cls-5" x="153.8" y="367.57"> </tspan><tspan x="157.83" y="367.57">Apoio</tspan><tspan class="cls-7" x="204.08" y="367.57"> </tspan><tspan x="208.77" y="367.57">Técnico:</tspan><tspan class="cls-5" x="277.11" y="367.57"> </tspan><tspan x="281.13" y="367.57">Análise Química</tspan><tspan x="0" y="389.26">Sala de pesquisa e</tspan><tspan class="cls-5" x="153.8" y="389.26"> </tspan><tspan x="157.83" y="389.26">Apoio</tspan><tspan class="cls-7" x="204.08" y="389.26"> </tspan><tspan x="208.77" y="389.26">Técnico: Microscopia</tspan></tspan></text></svg>