<svg id="Camada_1" data-name="Camada 1" xmlns="http://www.w3.org/2000/svg" viewBox="0 0 574.99 574.99"><defs><style>.cls-1{font-size:48.56px;}.cls-1,.cls-2{fill:#ff9700;font-family:LilitaOne, Lilita One;}.cls-2{font-size:16.3px;}.cls-3{font-size:17px;fill:#fff;font-family:ArialMT, Arial;}.cls-4{letter-spacing:-0.02em;}.cls-5{letter-spacing:-0.06em;}</style></defs><title>AI - Uniso Mapp - Descrições</title><rect x="0.01" width="574.99" height="574.99"/><text class="cls-1" transform="translate(184.56 60.55)">Biblioteca</text><text class="cls-2" transform="translate(62.1 90.05)">Térreo:<tspan class="cls-3"><tspan x="0" y="20.4">Ateliê de maquetes</tspan><tspan x="0" y="40.8">Anfiteatro</tspan><tspan x="0" y="61.2">Banheiros F/M (2)</tspan><tspan x="0" y="81.6">Bebedouro</tspan><tspan x="0" y="102">UTECH Startups</tspan><tspan x="0" y="122.4">Uco</tspan><tspan class="cls-4" x="30.23" y="122.4">f</tspan><tspan x="34.65" y="122.4">fee</tspan></tspan><tspan x="0" y="141.96">1º Andar:</tspan><tspan class="cls-3"><tspan x="0" y="162.36">Banheiros F/M/</tspan><tspan class="cls-5" x="115.27" y="162.36">A</tspan><tspan x="0" y="182.76">Luderia lab</tspan><tspan x="0" y="203.16">Sala mestrado e doutorado</tspan></tspan><tspan x="0" y="222.72">2º Andar:</tspan><tspan class="cls-3"><tspan x="0" y="243.12">Miniauditório</tspan></tspan><tspan x="0" y="262.68">3º Andar:</tspan><tspan class="cls-3"><tspan x="0" y="283.08">Banheiros F/M</tspan><tspan x="0" y="303.48">Business point</tspan><tspan x="0" y="323.88">SEBRAE aqui</tspan><tspan x="0" y="344.28">UNISOTECH</tspan></tspan><tspan x="0" y="363.84">4º Andar:</tspan><tspan class="cls-3"><tspan x="0" y="384.24">Banheiros F/M/A]</tspan><tspan x="0" y="404.64">Biblioteca</tspan></tspan></text><text class="cls-2" transform="translate(338.1 90.05)">5º Andar:<tspan class="cls-3"><tspan x="0" y="20.4">Biblioteca</tspan></tspan><tspan x="0" y="39.96">6º Andar:</tspan><tspan class="cls-3"><tspan x="0" y="60.36">Acessibilidade</tspan><tspan x="0" y="80.76">Banheiros F/M</tspan><tspan x="0" y="101.16">Bebedouro</tspan><tspan x="0" y="121.56">Biblioteca</tspan><tspan x="0" y="141.96">Coordenação</tspan><tspan x="0" y="162.36">NUCAB</tspan><tspan x="0" y="182.76">Preservação histórica</tspan><tspan x="0" y="203.16">Publicações periódicas </tspan><tspan x="0" y="223.56">e EDUNISO</tspan><tspan x="0" y="243.96">Referência e </tspan><tspan x="0" y="264.36">processamento técnico</tspan></tspan><tspan x="0" y="283.92">7º Andar:</tspan><tspan class="cls-3"><tspan x="0" y="304.32">Banheiros F/M</tspan><tspan x="0" y="324.72">Biblioteca</tspan><tspan x="0" y="345.12">Salas de estudo</tspan></tspan></text></svg>
