<svg id="Camada_1" data-name="Camada 1" xmlns="http://www.w3.org/2000/svg" viewBox="0 0 574.99 574.99"><defs><style>.cls-1{font-size:48.56px;}.cls-1,.cls-2{fill:#ff1a1a;font-family:LilitaOne, Lilita One;}.cls-2{font-size:18.08px;}.cls-3{fill:#fff;font-family:ArialMT, Arial;}.cls-4{letter-spacing:-0.06em;}</style></defs><title>AI - Uniso Mapp - Descrições</title><rect width="574.99" height="574.99"/><text class="cls-1" transform="translate(210.81 60.55)">Bloco A</text><text class="cls-2" transform="translate(62.09 91.32)">Térreo:<tspan class="cls-3"><tspan x="0" y="21.7">Bebedouro (1)</tspan><tspan x="0" y="43.4">Banheiro Masc / Fem</tspan><tspan class="cls-4" x="0" y="65.09">V</tspan><tspan x="11.06" y="65.09">estiário Masc / Fem</tspan><tspan x="0" y="86.79">LAB Integrado do movimento Humano</tspan><tspan x="0" y="108.49">Clínica de Psicologia Serviço Escola</tspan><tspan x="0" y="130.19">Núcleo de</tspan><tspan class="cls-4" x="81.42" y="130.19"> </tspan><tspan x="85.44" y="130.19">Acessibilidade</tspan><tspan x="0" y="151.88">1º</tspan><tspan class="cls-4" x="16.66" y="151.88"> </tspan><tspan x="20.69" y="151.88">Andar</tspan><tspan x="0" y="173.58">Salas de aula Comuns: 101 - 108</tspan><tspan x="0" y="195.28">Agência Experimental</tspan><tspan x="0" y="216.98">LAB de Educação Matemática</tspan><tspan x="0" y="238.68">Banheiro Masc / Fem</tspan><tspan x="0" y="260.37">Bebedouro - 2</tspan></tspan><tspan x="0" y="282.07">2º Andar:</tspan><tspan class="cls-3"><tspan x="0" y="303.77">Salas de aula Comuns: 201-208</tspan><tspan x="0" y="325.47">Banheiros Masc/Fem</tspan><tspan x="0" y="347.17">Bebedouro - 2</tspan></tspan><tspan x="0" y="368.86">3º Andar:</tspan><tspan class="cls-3"><tspan x="0" y="390.56">Coordenação de Cursos</tspan><tspan x="0" y="412.26">Salas de</tspan><tspan class="cls-4" x="70.37" y="412.26"> </tspan><tspan x="74.39" y="412.26">Aula Comuns: 301-308</tspan><tspan x="0" y="433.96">Banheiro Masc / Fem</tspan><tspan x="0" y="455.66">Bebedouro - 2</tspan></tspan></text></svg>