<svg id="Camada_1" data-name="Camada 1" xmlns="http://www.w3.org/2000/svg" viewBox="0 0 574.99 574.99"><defs><style>.cls-1{font-size:32px;font-family:LilitaOne, Lilita One;}.cls-1,.cls-2{fill:#fff;}.cls-2{font-size:18.08px;font-family:ArialMT, Arial;}.cls-3{letter-spacing:-0.06em;}.cls-4{letter-spacing:0.05em;}.cls-5{letter-spacing:0.05em;}.cls-6{letter-spacing:0.48em;}.cls-7{letter-spacing:0.48em;}.cls-8{letter-spacing:0em;}.cls-9{letter-spacing:0em;}.cls-10{letter-spacing:-0.11em;}</style></defs><title>AI - Uniso Mapp - Descrições</title><rect width="574.99" height="574.99"/><text class="cls-1" transform="translate(171.31 48.81)">Estacionamentos</text><text class="cls-2" transform="translate(62.09 91.44)"><tspan class="cls-3">A</tspan><tspan class="cls-4" x="11.06" y="0"> </tspan><tspan x="17.01" y="0">Uniso</tspan><tspan class="cls-4" x="63.24" y="0"> </tspan><tspan x="69.19" y="0">conta</tspan><tspan class="cls-4" x="113.42" y="0"> </tspan><tspan x="119.37" y="0">com</tspan><tspan class="cls-5" x="153.53" y="0"> </tspan><tspan x="159.48" y="0">alguns</tspan><tspan class="cls-4" x="212.76" y="0"> </tspan><tspan x="218.71" y="0">estacionamentos</tspan><tspan class="cls-4" x="355.4" y="0"> </tspan><tspan x="361.35" y="0">localizados </tspan><tspan x="0" y="21.7">em alguns pontos da universidade: </tspan><tspan x="0" y="65.09">O</tspan><tspan class="cls-6" x="14.06" y="65.09"> </tspan><tspan x="27.72" y="65.09">estacionamento</tspan><tspan class="cls-6" x="155.38" y="65.09"> </tspan><tspan x="169.03" y="65.09">principal</tspan><tspan class="cls-7" x="236.37" y="65.09"> </tspan><tspan x="250.03" y="65.09">em</tspan><tspan class="cls-6" x="275.14" y="65.09"> </tspan><tspan x="288.8" y="65.09">frente</tspan><tspan class="cls-6" x="335.04" y="65.09"> </tspan><tspan x="348.69" y="65.09">a</tspan><tspan class="cls-6" x="358.75" y="65.09"> </tspan><tspan x="372.4" y="65.09">escadaria </tspan><tspan x="0" y="86.79">principal.</tspan><tspan x="0" y="130.19">Possui</tspan><tspan class="cls-8" x="54.27" y="130.19"> </tspan><tspan x="59.37" y="130.19">também</tspan><tspan class="cls-8" x="124.69" y="130.19"> </tspan><tspan x="129.79" y="130.19">os</tspan><tspan class="cls-9" x="148.89" y="130.19"> </tspan><tspan x="153.99" y="130.19">estacionamentos</tspan><tspan class="cls-8" x="290.68" y="130.19"> </tspan><tspan x="295.79" y="130.19">frente</tspan><tspan class="cls-8" x="342.02" y="130.19"> </tspan><tspan x="347.12" y="130.19">aos</tspan><tspan class="cls-8" x="376.28" y="130.19"> </tspan><tspan x="381.38" y="130.19">blocos</tspan><tspan class="cls-8" x="433.64" y="130.19"> </tspan><tspan x="438.75" y="130.19">E </tspan><tspan x="0" y="151.88">e </tspan><tspan class="cls-10" x="15.08" y="151.88">F</tspan><tspan x="24.12" y="151.88">, ao lado do apoio 1, em frente ao apoio 4.</tspan></text></svg>