<svg version="1.2" xmlns="http://www.w3.org/2000/svg" viewBox="0 0 1080 677" width="112" height="70">
	<title>logo-svg</title>
	<style>
		.s0 { fill: #ffffff } 
		.s1 { fill: #ff0052 } 
		.s2 { fill: #2daa5f } 
		.s3 { fill: #2d2d2d } 
		.s4 { fill: #f78700 } 
		.s5 { fill: #0edd48 } 
	</style>
	<path id="Layer" class="s0" d="m903.7 34.9c-24.8-24.8-57.8-38.4-92.9-38.4-35.1 0-68.1 13.6-92.9 38.4-12.8 12.9-22.6 27.9-29.1 44-1.4-10.8-5-20.8-10.9-29.7-7.4-11.2-17.8-19.7-31.1-25.3-11.8-5-25.4-7.6-40.3-7.6-13.8 0-26.7 2.5-38.2 7.3-13.1 5.4-23.3 13.6-30.4 24.5q-1.9 2.9-3.5 6v-13.1c0-12.1-9.8-21.9-21.9-21.9h-21.5c-8.9 0-16.5 5.2-19.9 12.8-3.5-7.6-11.1-12.8-19.9-12.8h-20.7c-12.1 0-21.9 9.8-21.9 21.9v55.4l-45.2-67.6c-4.1-6-10.9-9.7-18.2-9.7h-22.1c-7.3 0-13.8 3.6-17.8 9.1-4-5.5-10.4-9.1-17.8-9.1h-21.5c-12.1 0-21.9 9.8-21.9 21.9v93.8c0 21.2-4.1 26.3-4.1 26.3-1.7 1.8-7.4 3.9-17.9 3.9-5.3 0-9.6-0.9-12.6-2.6-2-1.2-3.1-2.4-3.9-4.4-0.6-1.4-2.4-7.4-2.4-23.2v-93.8c0-12.1-9.9-21.9-22-21.9h-21.5c-12.1 0-21.9 9.8-21.9 21.9v93.9c0 20.4 2.6 36.5 7.9 49.2 6.1 14.6 16.4 26 30.5 33.6 12.9 7 29 10.6 47.8 10.6 19.8 0 36.5-4.2 49.6-12.4 12.7-7.9 22-18.4 27.6-31.1v18.8c0 12.1 9.8 21.9 21.9 21.9h20.6c12.1 0 22-9.8 22-21.9v-55.5l45.2 67.7c4 6 10.9 9.7 18.2 9.7h22c8.9 0 16.5-5.2 19.9-12.8 3.5 7.6 11.1 12.8 19.9 12.8h21.6c12.1 0 21.9-9.8 21.9-21.9v-9.9c7.9 11.6 18.8 20.5 32.3 26.3 12.6 5.5 28 8.3 45.6 8.3 14.7 0 28.4-2.8 40.5-8.4 13.1-6 23.4-14.7 30.6-25.9q4.4-6.8 7-14.1l84.1 157.1c7.2 13.4 21.1 21.7 36.3 21.7 15.2 0 29.1-8.3 36.2-21.7l84.8-158.3q0.5-1 1-2.1c19.5-48.8 8.1-104.4-29.1-141.7z"/>
	<g id="Layer">
		<path id="Layer" fill-rule="evenodd" class="s1" d="m913.7 158.5l-84.8 158.4c-7.7 14.5-28.5 14.5-36.2 0l-84.8-158.4c-16.5-41.1-6.8-88.1 24.5-119.5 21.7-21.6 50-32.4 78.4-32.4 28.3 0 56.7 10.8 78.3 32.4 31.4 31.4 41 78.4 24.6 119.5zm-61.1-41.7c0-23.1-18.7-41.8-41.8-41.8-23.1 0-41.8 18.7-41.8 41.8 0 23.1 18.7 41.8 41.8 41.8 23.1 0 41.8-18.7 41.8-41.8z"/>
		<g id="Layer">
			<path id="Layer" class="s1" d="m266.1 30.6l-0.1 93.8q0 30.6-10 41.3-10.1 10.8-33.9 10.8-13.8 0-23.4-5.4-9.6-5.5-13.5-15.5-4-10-4-31.2v-93.8h-21.5v93.9q0 25.8 6.2 40.7 6.3 14.9 20.8 22.8 14.5 7.9 37.3 7.9c15.3 0 28.4-3 38-9.1q14.5-9 20-23.4 5.5-14.4 5.5-38.9v-93.9z"/>
			<path id="Layer" class="s1" d="m430.6 30.6l-0.1 127.6-85.3-127.6h-22.1v162.5h20.6v-127.7l85.4 127.7h22.1v-162.5z"/>
			<path id="Layer" class="s1" d="m491 30.6v162.5h21.5v-162.5z"/>
			<path id="Layer" class="s1" d="m665.6 124.1q-6.7-10-20.9-16.6-9.8-4.4-36-10.3-26.2-6-32.4-11.6-6.3-5.7-6.3-14.4 0-10.1 8.9-17.3 8.9-7.1 28.4-7.1c13 0 22 2.6 28.4 7.9q9.6 7.8 11.2 23.2l20.6-1.5q-0.5-14.3-8-25.6-7.4-11.3-21.2-17.1-13.8-5.9-31.8-5.9-16.5 0-29.9 5.6-13.4 5.5-20.4 16.2-6.9 10.7-6.9 23 0 11.2 5.7 20.3 5.7 9 17.3 15.1 9 4.7 31.4 10.1 22.4 5.4 28.9 8 10.2 3.8 14.6 9.5 4.5 5.7 4.5 13.4c0 5.1-1.6 9.7-4.6 13.9q-4.6 6.4-14 10-9.5 3.7-21.8 3.7-13.8 0-24.9-4.8-11.1-4.8-16.4-12.7-5.2-7.8-6.7-20l-20.3 1.8q0.5 16.3 9 29.2 8.5 12.9 23.4 19.4 14.9 6.4 36.9 6.4 17.4 0 31.3-6.4 14-6.4 21.4-17.8 7.4-11.5 7.4-24.5c0-8.6-2.2-16.4-6.8-23.1z"/>
		</g>
	</g>
	<path id="Layer" class="s2" d="m468.7 443.1q0 0.2 0 0.4 0-0.2 0-0.4z"/>
	<g id="Layer">
		<path id="Layer" fill-rule="evenodd" class="s3" d="m757.4 237.1c35.6 0 57.8 22.7 57.8 59.4 0 16.1-4.7 29.7-13.9 40.5-10 11.8-24.3 18-41.2 18h-8.1v25c0 20.1-13.6 34.2-33.5 34.2-19.9 0-33.7-14.1-33.7-34.2v-32.6c-8.3 5-18.2 7.6-29.1 7.6h-8v25c0 20.1-13.8 34.2-33.6 34.2-8.3 0-15.6-2.5-21.3-6.9-6 4.5-13.1 6.9-20.8 6.9-13.8 0-25.6-7.9-30.9-20.6-0.1-0.2-0.6-1.5-1-2.5h-21.5l-0.4 1c-3.7 11.1-12.4 18.8-24 21.3-0.3 0-0.8 0.2-0.9 0.2q-0.5 0.1-0.9 0.1c-2 0.3-4 0.5-6 0.5h-0.2c-16.6 0-29.5-10-33-25.4q-0.7-2.8-0.9-5.7c0-0.1 0-0.3 0-0.3q-0.1-0.9-0.1-1.8 0-0.5 0-1v-35.9c-6 4-12.8 6.1-20.1 6.1-6.9 0-13.3-1.8-18.9-5.3v35.1c0 20.2-13.8 34.2-34 34.2-20.1 0-34.2-14-34.2-34.2v-135.3c0-20.5 14.4-34.9 35-34.9 13 0 24.5 6.2 32.5 17.3q0.1 0.2 20.2 29.2l19.9-28.6c10.9-15.7 24.1-19 33.1-19 9.8 0 18.8 4 25.4 11.4 4.4 5 7.3 11 8.4 17.6q4.2-1.1 8.7-1.1c11.5 0 21.9 5.4 29.1 15.2 1.3 1.7 2.3 3.6 3.1 5.6 0 0 9.7 24.6 20 50.7v-46.4c0-13.6 11.1-24.6 24.7-24.6h47.9c14.5 0 26.7 3.7 36.1 10.6 4.5-6.4 11.9-10.6 20.3-10.6h47.9zm-7.4 58.8l-0.1 0.1 0.1 0.1 0.1-0.2-0.1-0.1q0 0 0 0zm-104.4 0v0.2h0.1l0.1-0.1-0.1-0.1q-0.1 0-0.1 0z"/>
		<g id="Layer">
			<path id="Layer" class="s4" d="m503.7 244.7v39.5c-12 32.1-33.9 90.3-33.9 90.4q-1.1 3.2-1.1 6.4-0.1-0.5-0.1-1v-83.8l-18.8 27.4c-5.8 8.4-12.8 10.1-17.6 10.1-4.9 0-11.7-1.6-16.9-9.6l-18.5-28.1v84c0 11-6.7 17.8-17.5 17.8-10.9 0-17.8-6.8-17.8-17.8v-135.3c0-11.4 7.1-18.4 18.5-18.4 5.3 0 13 1.8 19.2 10.4 0 0 33.5 48.5 33.5 48.5l33.4-48.1c5.5-8 12.2-12 19.7-12 5 0 9.5 2.1 13 6 3.2 3.6 4.9 8.3 4.9 13.6z"/>
			<path id="Layer" fill-rule="evenodd" class="s5" d="m588.7 374.1q1.3 3.3 1.3 6.6c0 4.9-2 9.2-5.8 12.5-3.4 3-7.7 4.6-12.2 4.6-7.2 0-13-3.8-15.8-10.5 0-0.1-4.9-12.7-4.9-12.7h-44.1l-4.5 12-0.1 0.4q-0.1 0.2-0.1 0.3 0 0.1-0.1 0.1c-1.9 5.3-6.1 8.9-12 10q-0.5 0.1-1 0.2-0.1 0-0.3 0-0.9 0.1-1.7 0.2-0.4 0-0.7 0-0.1 0-0.2 0-0.5 0-0.9 0c-8.6-0.2-14.5-4.8-16.3-12.4q-0.1-0.4-0.2-0.7-0.4-1.6-0.4-3.3 0-0.2 0-0.4 0-3.2 1.1-6.4c0-0.1 21.9-58.3 33.9-90.4 4.6-12.2 7.7-20.6 7.7-20.6 0.3-0.7 0.6-1.4 1.1-2 5.2-7.1 11.3-8.5 15.7-8.5 4.4 0 10.7 1.4 15.9 8.5q0.7 0.9 1 1.9l43.6 110.5zm-59.4-24.2c9.2 0 16.6-7.4 16.6-16.5 0-9.2-7.4-16.6-16.6-16.6q-0.2 0-0.4 0c-9 0.3-16.1 7.4-16.1 16.6 0 9.1 7.4 16.5 16.5 16.5z"/>
			<path id="Layer" fill-rule="evenodd" class="s5" d="m757.3 253.5c26.7 0 41.4 15.2 41.4 42.9 0 12.2-3.3 22.2-9.9 29.9-6.9 8.1-16.6 12.2-28.7 12.2h-24.5v41.5c0 11-6.4 17.8-17.1 17.8-10.7 0-17.3-6.8-17.3-17.8v-118.3c0-4.5 3.7-8.2 8.2-8.2h47.9zm9.2 42.5c0-9.1-7.4-16.6-16.6-16.6-9.1 0-16.5 7.4-16.5 16.6 0 9.1 7.4 16.5 16.5 16.5 9.2 0 16.6-7.4 16.6-16.5z"/>
			<path id="Layer" fill-rule="evenodd" class="s5" d="m653 253.5c26.7 0 41.4 15.2 41.4 42.9 0 12.2-3.4 22.2-10 29.9-6.9 8.1-16.5 12.2-28.7 12.2h-24.5v41.5c0 11-6.4 17.8-17.1 17.8-10.6 0-17.2-6.8-17.2-17.8v-118.3c0-4.5 3.6-8.2 8.2-8.2h47.9zm9.1 42.5c0-9.1-7.4-16.6-16.5-16.6-9.2 0-16.6 7.4-16.6 16.6 0 9.1 7.4 16.5 16.6 16.5 9.1 0 16.5-7.4 16.5-16.5z"/>
		</g>
	</g>
</svg>